# xmcd
#
# Track frame offsets:
#	150
#	14068
#	27408
#	38514
#	52077
#	64292
#	85167
#	102489
#	112145
#	124777
#
# Disc length: 1882 seconds
# Revision: 0
# Processed by: cddbd v1.5.2PL0 Copyright (c) Steve Scherf et al.
# Submitted via: dBpowerAMP V12.0
#
DISCID=8d07580a
DTITLE=The Pine Street String Band - Banjo Christmas: Christmas Treasures Series CD1
DYEAR=2012
DGENRE=Holiday
TTITLE0=Deck The Halls - We Wish You A Merry Christmas
TTITLE1=Auld Lang Syne
TTITLE2=Joy To The World
TTITLE3=The Keys Of Bethlehem
TTITLE4=God Rest Ye Merry Gentlemen
TTITLE5=The First Noel
TTITLE6=Hark The Herald Angels Sing
TTITLE7=Old Christmas
TTITLE8=Jingle Bells
TTITLE9=The Friendly Beasts
EXTD=
EXTT0=
EXTT1=
EXTT2=
EXTT3=
EXTT4=
EXTT5=
EXTT6=
EXTT7=
EXTT8=
EXTT9=
PLAYORDER=
